Coordinates
version=1
nRows=10
nColumns=55
inDegrees=yes

Units are S.I. units (second, meters, Newtons, ...)
If the header above contains a line with 'inDegrees', this indicates whether rotational values are in degrees (yes) or radians (no).

endheader
time	pelvis_tilt	pelvis_list	pelvis_rotation	pelvis_tx	pelvis_ty	pelvis_tz	hip_flexion_r	hip_adduction_r	hip_rotation_r	knee_angle_r	knee_angle_r_beta	ankle_angle_r	subtalar_angle_r	mtp_angle_r	hip_flexion_l	hip_adduction_l	hip_rotation_l	knee_angle_l	knee_angle_l_beta	ankle_angle_l	subtalar_angle_l	mtp_angle_l	lumbar_extension	lumbar_bending	lumbar_rotation	torso_tx	torso_ty	torso_tz	arm_flex_r	arm_add_r	arm_rot_r	shoulder_rx	shoulder_ry	shoulder_rz	elbow_flex_r	pro_sup_r	wrist_flex_r	wrist_dev_r	arm_flex_l	arm_add_l	arm_rot_l	shoulder_lx	shoulder_ly	shoulder_lz	elbow_flex_l	pro_sup_l	wrist_flex_l	wrist_dev_l	neck_extension	neck_bending	neck_rotation	head_tx	head_ty	head_tz
     17.31000000	     12.20087819	     -4.48645117	     -1.28139970	      0.74499883	      0.99962108	     -0.18532859	      9.99083740	      5.07270043	     -3.08839459	     36.50224822	      0.63708442	     16.43990891	      5.06028348	      5.14491207	    -14.24949116	     -9.62846268	     -0.08625856	     82.06106720	      1.43223581	    -27.68870306	    -25.11349275	     11.89156449	    -19.01554525	      5.24402027	     -0.82851205	      0.09257786	     -0.00182510	     -0.00341399	    -28.29711603	    -21.46862042	     -6.68195839	     -0.02818166	     -0.03641101	     -0.02257286	    117.55132927	     37.59191758	     -7.94679524	    -44.31690994	    -22.36171837	    -23.87612625	     18.24616035	     -0.01581295	     -0.03357180	      0.02753857	    119.64882498	     18.17282873	      8.50132309	    -39.45937597	     21.02857279	     -0.61388360	      4.66196959	      0.01494781	      0.01544522	     -0.00335234
     17.32000000	     11.62942494	     -5.18842614	     -1.12623229	      0.74232851	      0.99293031	     -0.18488297	     11.03876461	      6.15939928	     -2.15756154	     40.31639115	      0.70365377	     20.80034325	      4.60987846	      4.41861494	    -10.21018357	    -10.88503342	      0.35816480	     86.93982382	      1.51738618	    -25.54510481	    -25.19650282	     11.92456845	    -19.18007219	      5.93020927	      0.22191496	      0.08980725	      0.00046109	     -0.00154964	    -24.99274390	    -22.77948636	     -6.89149773	     -0.03033078	     -0.03645417	     -0.02909936	    113.48981823	     36.87736994	     -8.16876929	    -44.08914146	    -22.64388900	    -23.45516323	     16.75422200	     -0.01577235	     -0.03205188	      0.02779390	    117.56329973	     17.89486045	      8.53931957	    -40.02214226	     21.97045649	     -1.63764890	      3.66207115	      0.01430947	      0.01669446	     -0.00035505
     17.33000000	     11.91234014	     -4.94107686	     -1.78730743	      0.73928246	      0.99023199	     -0.18392558	      9.55877963	      5.70222418	     -2.46961598	     40.52068038	      0.70721929	     21.28754129	      4.51319511	      4.35337051	     -7.39021394	    -10.48970005	      0.16935705	     90.09043105	      1.57237465	    -25.74201323	    -25.01984262	     11.95245738	    -19.63642798	      5.77508875	      2.00118963	      0.09149035	     -0.00087011	     -0.00454581	    -24.38834230	    -23.12462084	     -6.41298740	     -0.02497364	     -0.03757290	     -0.02652916	    112.92128389	     36.80558499	     -8.17559596	    -44.00518119	    -23.26819567	    -23.43803467	     16.38239112	     -0.01558272	     -0.03360820	      0.02851920	    116.80197225	     17.79172716	      8.50870455	    -40.16782118	     22.09913552	     -1.77802614	      3.54032277	      0.01521278	      0.01712434	     -0.00149659
     17.34000000	     12.21760401	     -4.79031459	     -2.13749274	      0.73626581	      0.98821647	     -0.18361006	      8.03964301	      5.42388677	     -2.38846955	     40.84706933	      0.71291585	     21.99559104	      4.57250441	      4.25404536	     -4.47488022	    -10.32881108	      0.10301808	     92.65811564	      1.61718920	    -25.69488474	    -24.81045392	     11.93714100	    -20.07731494	      5.57379301	      3.47107889	      0.09326372	     -0.00177492	     -0.00526269	    -23.56930776	    -23.53132963	     -6.23362132	     -0.02102932	     -0.03890107	     -0.02677769	    112.11511320	     36.67223707	     -8.21827786	    -43.92259775	    -23.90834571	    -23.45584884	     15.90663000	     -0.01575674	     -0.03345668	      0.02853975	    116.06938434	     17.68342737	      8.47148517	    -40.31860909	     22.18616068	     -1.94347430	      3.38303042	      0.01551275	      0.01776951	     -0.00145374
     17.35000000	     12.41248121	     -4.70847318	     -2.56718336	      0.73294895	      0.98660599	     -0.18410071	      6.49266968	      5.15441688	     -2.21794399	     41.02325369	      0.71599085	     23.16122666	      4.78927355	      4.09900849	     -1.21420114	    -10.05524116	      0.07702382	     95.28477189	      1.66303300	    -25.35994972	    -24.34666379	     11.87946408	    -20.42700640	      5.46132750	      5.05736660	      0.09546715	     -0.00121060	     -0.00547819	    -22.18859640	    -24.07130690	     -6.07131475	     -0.01900547	     -0.03934473	     -0.02756092	    111.03992507	     36.48262607	     -8.28751949	    -43.80868249	    -24.59658702	    -23.42453799	     15.23397264	     -0.01593413	     -0.03274715	      0.02871865	    115.41237054	     17.57826438	      8.44716644	    -40.51405283	     22.25663578	     -2.20775745	      3.09648188	      0.01648755	      0.01799149	     -0.00124448
     17.36000000	     12.40878127	     -4.61021688	     -2.88026088	      0.73023176	      0.98651759	     -0.18505001	      4.91790464	      4.85242378	     -2.01514839	     40.86856011	      0.71329093	     24.39110214	      5.20718688	      3.94813205	      2.13147835	     -9.77412506	      0.02008383	     96.93010043	      1.69174940	    -24.64722650	    -23.66642747	     11.77477791	    -20.59729232	      5.50092174	      6.58520458	      0.09675121	     -0.00049359	     -0.00620367	    -20.50322390	    -24.59403622	     -5.76033884	     -0.01910896	     -0.03823583	     -0.02770839	    110.18041926	     36.32634734	     -8.34452102	    -43.68663102	    -25.16397958	    -23.31252117	     14.54889312	     -0.01663194	     -0.03208110	      0.02885041	    115.14937105	     17.52441776	      8.45886308	    -40.70925118	     22.28775135	     -2.52559602	      2.71511886	      0.01706232	      0.01828770	     -0.00152952
     17.37000000	     12.67430461	     -4.76564050	     -3.12508689	      0.72798153	      0.98854580	     -0.18648235	      3.19856497	      4.76036829	     -1.99772680	     41.15578242	      0.71830391	     24.45508336	      5.27851421	      3.93744089	      4.38192431	     -9.57455524	     -0.14342314	     96.61889033	      1.68631776	    -24.34632961	    -23.63705976	     11.72797286	    -20.61978637	      5.64051069	      7.01104347	      0.10050208	     -0.00124992	     -0.00519457	    -20.14966472	    -24.65660532	     -5.69084088	     -0.01276615	     -0.03679883	     -0.02902009	    110.17504780	     36.32255351	     -8.34319346	    -43.66880703	    -25.29397677	    -23.31373401	     14.45476262	     -0.02295296	     -0.03029404	      0.02709217	    115.16697877	     17.52460377	      8.46470616	    -40.73693689	     22.27217097	     -2.55992856	      2.66238186	      0.01901644	      0.01891357	     -0.00095508
     17.38000000	     12.57726680	     -4.34613536	     -3.25822651	      0.72568061	      0.99099214	     -0.18751193	      1.17033937	      3.99417196	     -1.94932174	     39.97445471	      0.69768585	     25.24366114	      5.82978357	      3.87373165	      7.92537592	     -8.99400685	     -0.33557788	     97.65451053	      1.70439274	    -23.48623452	    -23.03626482	     11.59091495	    -20.76366579	      5.74160683	      9.23560833	      0.10099643	      0.00062464	     -0.00893255	    -18.21384989	    -25.12923411	     -5.09866100	     -0.01899893	     -0.03391471	     -0.02602988	    110.55453547	     36.37057653	     -8.29266587	    -43.57076147	    -25.89118607	    -23.20335847	     13.80422305	     -0.01960870	     -0.03035656	      0.02878036	    115.29476693	     17.51887514	      8.49542846	    -40.91269005	     22.21159525	     -2.84909146	      2.30635382	      0.01881113	      0.01876662	     -0.00319252
     17.39000000	     10.62502401	     -4.16302189	     -4.50184796	      0.72685687	      0.99514619	     -0.18774951	     -0.73732089	      3.52018532	     -1.56832878	     35.42998545	      0.61836990	     26.53575761	      8.18255657	      3.84049670	     12.19237066	     -8.03828618	     -0.66378378	     97.03102889	      1.69351093	    -20.38697922	    -20.89254690	     11.19449051	    -20.12876078	      4.88657720	     10.95667192	      0.08919760	      0.00482556	     -0.00611910	    -14.02826564	    -26.21764158	     -3.85047863	     -0.02327819	     -0.03589454	     -0.02916749	    111.19453005	     36.38758464	     -8.22549157	    -43.39352141	    -26.40029476	    -22.81235452	     12.81472559	     -0.01710251	     -0.02994640	      0.02643254	    117.07581584	     17.72777994	      8.71771536	    -41.21064196	     22.10343379	     -3.82931933	      0.94725402	      0.01308155	      0.01759920	      0.00001099
     17.40000000	     11.02906720	     -4.26665563	     -4.56692342	      0.72405050	      1.00042474	     -0.18907163	     -2.55818007	      3.35439093	     -1.47991441	     35.68369265	      0.62279793	     26.39958985	      8.31506402	      3.85691188	     14.68600179	     -7.94730804	     -0.91103585	     96.25025013	      1.67988377	    -19.97516373	    -20.85760815	     11.13860936	    -20.12431576	      5.09108807	     11.32303138	      0.09526049	      0.00430597	     -0.00632360	    -13.83696525	    -26.22049121	     -3.70112871	     -0.02040956	     -0.03200188	     -0.03094716	    111.30383799	     36.40420735	     -8.21435092	    -43.38076874	    -26.45655025	    -22.84173178	     12.71760278	     -0.02307644	     -0.02822831	      0.02444232	    117.14914854	     17.73263972	      8.72701358	    -41.23081039	     22.08400173	     -3.85125579	      0.88253766	      0.01607146	      0.01860694	      0.00041731
